<svg height="200px" width="200px" version="1.1" id="Layer_1" xmlns="http://www.w3.org/2000/svg" xmlns:xlink="http://www.w3.org/1999/xlink" viewBox="0 0 512 512" xml:space="preserve" fill="#000000"><g id="SVGRepo_bgCarrier" stroke-width="0"></g><g id="SVGRepo_tracerCarrier" stroke-linecap="round" stroke-linejoin="round"></g><g id="SVGRepo_iconCarrier"> <path style="fill:#ff4747;" d="M266.667,501.333c-135.494,0-245.333-109.84-245.333-245.333S131.172,10.667,266.667,10.667V501.333z "></path> <circle style="fill:#FFFFFF;" cx="266.667" cy="256" r="32"></circle> <g> <path style="fill:#b30000;" d="M432.599,90.065c-4.165-4.163-10.919-4.164-15.085,0c-4.165,4.165-4.165,10.919,0,15.086 C457.809,145.444,480,199.018,480,256c0,45.694-14.143,89.157-40.9,125.694c-3.481,4.752-2.449,11.427,2.303,14.908 c1.9,1.392,4.107,2.063,6.293,2.063c3.285,0,6.525-1.513,8.614-4.366c29.455-40.219,45.023-88.042,45.023-138.299 C501.333,193.318,476.924,134.388,432.599,90.065z"></path> <path style="fill:#b30000;" d="M387.345,135.319c-4.165-4.164-10.919-4.164-15.086,0c-4.165,4.165-4.165,10.919,0,15.086 C400.466,178.611,416,216.112,416,256s-15.534,77.389-43.74,105.595c-4.165,4.165-4.165,10.919,0,15.086 c2.083,2.082,4.813,3.124,7.542,3.124c2.73,0,5.46-1.042,7.542-3.124c32.236-32.236,49.988-75.094,49.988-120.681 S419.581,167.555,387.345,135.319z"></path> <path style="fill:#b30000;" d="M342.091,180.575c-4.165-4.164-10.919-4.164-15.086,0c-4.165,4.165-4.165,10.919,0,15.086 C343.123,211.778,352,233.207,352,256c0,22.793-8.877,44.222-24.994,60.339c-4.165,4.165-4.165,10.919,0,15.086 c2.083,2.082,4.813,3.124,7.542,3.124c2.73,0,5.46-1.042,7.542-3.124c20.147-20.147,31.243-46.933,31.243-75.425 C373.333,227.508,362.238,200.722,342.091,180.575z"></path> <path style="fill:#b30000;" d="M277.333,214.708V10.667c0-5.89-4.775-10.667-10.667-10.667c-68.38,0-132.668,26.628-181.02,74.98 S10.667,187.62,10.667,256s26.628,132.668,74.98,181.02S198.287,512,266.667,512c5.651,0,10.263-4.398,10.63-9.955h0.036 c0-0.119-0.014-0.237-0.018-0.355c0.004-0.119,0.018-0.237,0.018-0.356V297.292c7.15-1.835,13.916-5.535,19.503-11.122 c16.636-16.636,16.636-43.705,0-60.339C291.249,220.243,284.483,216.542,277.333,214.708z M150.119,435.806 c9.222,14.885,19.417,27.731,30.354,38.463c-25.267-10.014-48.388-24.3-68.485-41.952c9.598-4.255,19.463-8.091,29.548-11.51 C144.261,425.954,147.119,430.963,150.119,435.806z M168.254,424.571c-2.043-3.297-4.01-6.686-5.916-10.141 c29.92-8.202,61.466-12.831,93.662-13.669v89.653c-1.059-0.048-2.116-0.105-3.172-0.165 C221.195,485.07,191.573,462.208,168.254,424.571z M256,379.424c-35.54,0.881-70.368,6.158-103.307,15.564 c-16.594-37.315-26.048-81.572-27.226-128.321h99.874c1.875,7.314,5.676,14.023,11.154,19.503 c5.587,5.587,12.353,9.289,19.504,11.122V379.424z M225.342,245.333H125.5c1.346-46.753,10.985-90.96,27.759-128.161 c32.772,9.305,67.404,14.528,102.74,15.404v82.131c-7.15,1.835-13.917,5.536-19.504,11.123 C231.018,231.31,227.217,238.019,225.342,245.333z M142.17,91.409c-10.305-3.473-20.381-7.381-30.18-11.726 c20.73-18.208,44.684-32.822,70.883-42.871c-11.854,11.178-22.858,24.833-32.753,40.804 C147.353,82.082,144.703,86.683,142.17,91.409z M168.254,88.851C192.351,49.958,223.179,26.847,256,22.72v88.521 c-31.953-0.832-63.264-5.402-92.982-13.489C164.711,94.724,166.454,91.756,168.254,88.851z M95.541,95.605 c12.025,5.678,24.46,10.727,37.233,15.134c-17.351,39.443-27.274,85.813-28.611,134.594h-71.91 C34.851,187.565,58.432,135.173,95.541,95.605z M32.253,266.667h71.878c1.17,48.793,10.922,95.222,28.106,134.781 c-12.585,4.362-24.838,9.349-36.694,14.947C58.432,376.827,34.851,324.435,32.253,266.667z M281.751,271.085 c-8.317,8.318-21.851,8.32-30.17,0c-8.318-8.318-8.318-21.851,0-30.169c4.159-4.159,9.622-6.239,15.085-6.239 c5.463,0,10.926,2.079,15.085,6.239c4.03,4.029,6.249,9.387,6.249,15.085S285.78,267.055,281.751,271.085z"></path> <path style="fill:#b30000;" d="M415.984,413.038l-0.342,0.342c-4.165,4.164-4.165,10.918,0,15.085 c4.165,4.166,10.919,4.165,15.085,0l0.342-0.342c4.165-4.164,4.165-10.918,0-15.085 C426.903,408.871,420.149,408.871,415.984,413.038z"></path> </g> </g></svg>